<svg id="visual" viewBox="0 0 900 450" width="900" height="450" xmlns="http://www.w3.org/2000/svg" xmlns:xlink="http://www.w3.org/1999/xlink" version="1.1"><path d="M0 180L82 166L164 207L245 225L327 214L409 177L491 245L573 195L655 215L736 241L818 262L900 242L900 451L818 451L736 451L655 451L573 451L491 451L409 451L327 451L245 451L164 451L82 451L0 451Z" fill="#bc6c25"></path><path d="M0 238L82 236L164 223L245 304L327 235L409 256L491 217L573 305L655 242L736 238L818 286L900 294L900 451L818 451L736 451L655 451L573 451L491 451L409 451L327 451L245 451L164 451L82 451L0 451Z" fill="#c78b45"></path><path d="M0 287L82 303L164 244L245 267L327 307L409 279L491 254L573 334L655 264L736 268L818 310L900 272L900 451L818 451L736 451L655 451L573 451L491 451L409 451L327 451L245 451L164 451L82 451L0 451Z" fill="#d2a867"></path><path d="M0 294L82 313L164 332L245 366L327 327L409 307L491 356L573 343L655 285L736 311L818 302L900 354L900 451L818 451L736 451L655 451L573 451L491 451L409 451L327 451L245 451L164 451L82 451L0 451Z" fill="#dec48d"></path><path d="M0 353L82 335L164 392L245 337L327 353L409 341L491 328L573 353L655 352L736 364L818 359L900 351L900 451L818 451L736 451L655 451L573 451L491 451L409 451L327 451L245 451L164 451L82 451L0 451Z" fill="#eddfb6"></path><path d="M0 416L82 407L164 406L245 398L327 423L409 379L491 417L573 404L655 395L736 377L818 378L900 390L900 451L818 451L736 451L655 451L573 451L491 451L409 451L327 451L245 451L164 451L82 451L0 451Z" fill="#fefae0"></path></svg>