<svg id="visual" viewBox="0 0 1920 1080" width="1920" height="1080" xmlns="http://www.w3.org/2000/svg" xmlns:xlink="http://www.w3.org/1999/xlink" version="1.1"><path d="M0 790L80 779C160 768 320 746 480 751.7C640 757.3 800 790.7 960 772.3C1120 754 1280 684 1440 658.2C1600 632.3 1760 650.7 1840 659.8L1920 669L1920 1081L1840 1081C1760 1081 1600 1081 1440 1081C1280 1081 1120 1081 960 1081C800 1081 640 1081 480 1081C320 1081 160 1081 80 1081L0 1081Z" fill="#dda15e"></path><path d="M0 728L80 693.2C160 658.3 320 588.7 480 614C640 639.3 800 759.7 960 818.7C1120 877.7 1280 875.3 1440 871.8C1600 868.3 1760 863.7 1840 861.3L1920 859L1920 1081L1840 1081C1760 1081 1600 1081 1440 1081C1280 1081 1120 1081 960 1081C800 1081 640 1081 480 1081C320 1081 160 1081 80 1081L0 1081Z" fill="#d79752"></path><path d="M0 680L80 719.2C160 758.3 320 836.7 480 853.5C640 870.3 800 825.7 960 795C1120 764.3 1280 747.7 1440 744.3C1600 741 1760 751 1840 756L1920 761L1920 1081L1840 1081C1760 1081 1600 1081 1440 1081C1280 1081 1120 1081 960 1081C800 1081 640 1081 480 1081C320 1081 160 1081 80 1081L0 1081Z" fill="#d08c47"></path><path d="M0 875L80 871.5C160 868 320 861 480 844C640 827 800 800 960 816.3C1120 832.7 1280 892.3 1440 908.8C1600 925.3 1760 898.7 1840 885.3L1920 872L1920 1081L1840 1081C1760 1081 1600 1081 1440 1081C1280 1081 1120 1081 960 1081C800 1081 640 1081 480 1081C320 1081 160 1081 80 1081L0 1081Z" fill="#ca823b"></path><path d="M0 796L80 828.7C160 861.3 320 926.7 480 938C640 949.3 800 906.7 960 898.7C1120 890.7 1280 917.3 1440 939.2C1600 961 1760 978 1840 986.5L1920 995L1920 1081L1840 1081C1760 1081 1600 1081 1440 1081C1280 1081 1120 1081 960 1081C800 1081 640 1081 480 1081C320 1081 160 1081 80 1081L0 1081Z" fill="#c37730"></path><path d="M0 888L80 901.7C160 915.3 320 942.7 480 944.7C640 946.7 800 923.3 960 925C1120 926.7 1280 953.3 1440 962.2C1600 971 1760 962 1840 957.5L1920 953L1920 1081L1840 1081C1760 1081 1600 1081 1440 1081C1280 1081 1120 1081 960 1081C800 1081 640 1081 480 1081C320 1081 160 1081 80 1081L0 1081Z" fill="#bc6c25"></path></svg>