<svg id="visual" viewBox="0 0 1920 1080" width="1920" height="1080" xmlns="http://www.w3.org/2000/svg" xmlns:xlink="http://www.w3.org/1999/xlink" version="1.1"><path d="M0 116L64 136.8C128 157.7 256 199.3 384 221.8C512 244.3 640 247.7 768 241.8C896 236 1024 221 1152 205.2C1280 189.3 1408 172.7 1536 175.3C1664 178 1792 200 1856 211L1920 222L1920 0L1856 0C1792 0 1664 0 1536 0C1408 0 1280 0 1152 0C1024 0 896 0 768 0C640 0 512 0 384 0C256 0 128 0 64 0L0 0Z" fill="#dda15e"></path><path d="M0 184L64 194C128 204 256 224 384 210.7C512 197.3 640 150.7 768 132.5C896 114.3 1024 124.7 1152 154.3C1280 184 1408 233 1536 229C1664 225 1792 168 1856 139.5L1920 111L1920 0L1856 0C1792 0 1664 0 1536 0C1408 0 1280 0 1152 0C1024 0 896 0 768 0C640 0 512 0 384 0C256 0 128 0 64 0L0 0Z" fill="#d79752"></path><path d="M0 159L64 160C128 161 256 163 384 167C512 171 640 177 768 189C896 201 1024 219 1152 204C1280 189 1408 141 1536 132C1664 123 1792 153 1856 168L1920 183L1920 0L1856 0C1792 0 1664 0 1536 0C1408 0 1280 0 1152 0C1024 0 896 0 768 0C640 0 512 0 384 0C256 0 128 0 64 0L0 0Z" fill="#d08c47"></path><path d="M0 63L64 65.2C128 67.3 256 71.7 384 76.3C512 81 640 86 768 91.8C896 97.7 1024 104.3 1152 106.2C1280 108 1408 105 1536 106.8C1664 108.7 1792 115.3 1856 118.7L1920 122L1920 0L1856 0C1792 0 1664 0 1536 0C1408 0 1280 0 1152 0C1024 0 896 0 768 0C640 0 512 0 384 0C256 0 128 0 64 0L0 0Z" fill="#ca823b"></path><path d="M0 131L64 121.8C128 112.7 256 94.3 384 96C512 97.7 640 119.3 768 115.7C896 112 1024 83 1152 80.5C1280 78 1408 102 1536 110.5C1664 119 1792 112 1856 108.5L1920 105L1920 0L1856 0C1792 0 1664 0 1536 0C1408 0 1280 0 1152 0C1024 0 896 0 768 0C640 0 512 0 384 0C256 0 128 0 64 0L0 0Z" fill="#c37730"></path><path d="M0 27L64 32.3C128 37.7 256 48.3 384 48.8C512 49.3 640 39.7 768 45.5C896 51.3 1024 72.7 1152 81.8C1280 91 1408 88 1536 81.7C1664 75.3 1792 65.7 1856 60.8L1920 56L1920 0L1856 0C1792 0 1664 0 1536 0C1408 0 1280 0 1152 0C1024 0 896 0 768 0C640 0 512 0 384 0C256 0 128 0 64 0L0 0Z" fill="#bc6c25"></path></svg>